# xmcd CD database file
#
# Track frame offsets:
#	150
#	12644
#	25654
#	36261
#	44096
#	56727
#	67278
#	82617
#	95105
#	103950
#
# Disc length: 1526 seconds
#
# Revision: 0
# Processed by: cddbd v1.5.2PL0 Copyright (c) Steve Scherf et al.
# Submitted via: CDex 1.70beta2
#
DISCID=8d05f40a
DTITLE=Frank Vignola - Jazz Solos Volume 2
DYEAR=2003
DGENRE=Jazz
TTITLE0=All Is Me
TTITLE1=Autumn's Finest Leaves
TTITLE2=Softer Than A Morning Sunrise
TTITLE3=Solar-ize
TTITLE4=I Am Not Getting Around Much Anymore
TTITLE5=Blues Bossa Nova
TTITLE6=Cherokee Warning
TTITLE7=Black And Blue Orpheus
TTITLE8=Dark Eyes
TTITLE9=Tuning Up
EXTD=YEAR: 2003
EXTT0=
EXTT1=
EXTT2=
EXTT3=
EXTT4=
EXTT5=
EXTT6=
EXTT7=
EXTT8=
EXTT9=
PLAYORDER=
